<svg width="25" height="25" viewBox="0 0 25 25" fill="none" xmlns="http://www.w3.org/2000/svg">
<g id="alarm-clock (1)" clip-path="url(#clip0_1_1053)">
<g id="Group">
<g id="Group_2">
<path id="Vector" d="M12.5 3.7605C7.24335 3.7605 2.96661 8.03729 2.96661 13.2939C2.96661 18.5508 7.2434 22.8275 12.5 22.8275C17.7569 22.8275 22.0333 18.5507 22.0333 13.2939C22.0333 8.03729 17.7566 3.7605 12.5 3.7605ZM12.5 21.0997C8.19613 21.0997 4.69468 17.598 4.69468 13.2942C4.69468 8.99036 8.19608 5.48891 12.5 5.48891C16.8039 5.48891 20.3053 8.99036 20.3053 13.2942C20.3053 17.5983 16.8038 21.0997 12.5 21.0997Z" fill="#949DA6"/>
</g>
</g>
<g id="Group_3">
<g id="Group_4">
<path id="Vector_2" d="M15.1495 13.0061H12.8454V9.66508C12.8454 9.18784 12.4586 8.80103 11.9814 8.80103C11.5041 8.80103 11.1173 9.18784 11.1173 9.66508V13.8701C11.1173 14.3474 11.5041 14.7342 11.9814 14.7342H15.1496C15.6268 14.7342 16.0136 14.3474 16.0136 13.8701C16.0136 13.3929 15.6268 13.0061 15.1495 13.0061Z" fill="#949DA6"/>
</g>
</g>
<g id="Group_5">
<g id="Group_6">
<path id="Vector_3" d="M7.60592 19.4779C7.25109 19.1585 6.70471 19.1876 6.38562 19.5422L3.79344 22.4223C3.47401 22.7769 3.50311 23.3232 3.85765 23.6424C4.02269 23.7913 4.22947 23.8645 4.43543 23.8645C4.6719 23.8645 4.9075 23.768 5.078 23.5782L7.67018 20.698C7.98957 20.3434 7.96046 19.797 7.60592 19.4779Z" fill="#949DA6"/>
</g>
</g>
<g id="Group_7">
<g id="Group_8">
<path id="Vector_4" d="M21.2071 22.4227L18.6149 19.5425C18.2964 19.1877 17.7497 19.1589 17.3949 19.4783C17.04 19.7974 17.0115 20.3438 17.3307 20.6984L19.9228 23.5785C20.093 23.768 20.3286 23.8645 20.5651 23.8645C20.7708 23.8645 20.9776 23.7914 21.1429 23.6427C21.4977 23.3236 21.5262 22.7772 21.2071 22.4227Z" fill="#949DA6"/>
</g>
</g>
<g id="Group_9">
<g id="Group_10">
<path id="Vector_5" d="M7.45904 2.39484C5.74215 0.713694 2.97463 0.716282 1.29002 2.40119C0.45184 3.23903 -0.00611746 4.34762 -6.27938e-05 5.52271C0.00628484 6.68369 0.466537 7.7707 1.29632 8.58349C1.46453 8.74794 1.68255 8.83002 1.90086 8.83002C2.12205 8.83002 2.34324 8.74535 2.51174 8.57714L7.46563 3.62325C7.62867 3.45997 7.71968 3.23844 7.71851 3.00778C7.71739 2.77702 7.62403 2.55641 7.45904 2.39484ZM1.99563 6.64912C1.82254 6.30034 1.73006 5.91441 1.72806 5.51348C1.7243 4.80381 2.00252 4.13214 2.51174 3.62291C3.0198 3.11515 3.69148 2.86139 4.36686 2.86139C4.76173 2.86139 5.15807 2.94806 5.52326 3.12145L1.99563 6.64912Z" fill="#949DA6"/>
</g>
</g>
<g id="Group_11">
<g id="Group_12">
<path id="Vector_6" d="M23.71 2.40083C22.0251 0.716221 19.2575 0.71334 17.5407 2.39449C17.3759 2.55606 17.2823 2.77671 17.2811 3.00737C17.28 3.23809 17.3713 3.45986 17.5343 3.62285L22.4882 8.57674C22.6567 8.74553 22.8779 8.82991 23.0991 8.82991C23.3174 8.82991 23.5357 8.74783 23.7036 8.58279C24.5337 7.77029 24.994 6.68334 25 5.52231C25.0061 4.34755 24.5478 3.23896 23.71 2.40083ZM23.0044 6.64906L19.4767 3.12144C20.4669 2.65137 21.6832 2.81817 22.4882 3.62314C22.9975 4.13237 23.2757 4.8037 23.2719 5.51371C23.2699 5.91434 23.1775 6.30057 23.0044 6.64906Z" fill="#949DA6"/>
</g>
</g>
</g>
<defs>
<clipPath id="clip0_1_1053">
<rect width="25" height="25" fill="white"/>
</clipPath>
</defs>
</svg>
