<svg width="25" height="25" viewBox="0 0 25 25" fill="none" xmlns="http://www.w3.org/2000/svg">
<g id="edit" clip-path="url(#clip0_1_1075)">
<g id="Group">
<g id="Group_2">
<g id="Group_3">
<path id="Vector" d="M2.36513 20H2.50028L9.02053 18.581C9.14753 18.5599 9.26521 18.5011 9.35833 18.4121L20.4055 7.36492C21.2125 6.55966 21.6628 5.46438 21.6555 4.32443C21.657 3.17561 21.2082 2.07199 20.4055 1.25011C19.6003 0.44311 18.505 -0.00714406 17.365 0.000162955C16.2177 -0.00998926 15.1173 0.45462 14.3245 1.28393L3.31103 12.3311C3.21391 12.4093 3.1431 12.5154 3.10831 12.6351L1.68946 19.1554C1.65073 19.3895 1.726 19.628 1.89218 19.7973C2.01692 19.9246 2.18692 19.9974 2.36513 20ZM17.365 1.35151C18.9883 1.35138 20.3042 2.66722 20.3044 4.29048C20.3044 4.30179 20.3043 4.31311 20.3042 4.32443C20.3152 5.09774 20.0101 5.84209 19.4596 6.3852L15.3042 2.19602C15.8517 1.652 16.5932 1.34808 17.365 1.35151ZM14.3583 3.1758L18.5136 7.33116L8.88531 16.9257L4.72995 12.804L14.3583 3.1758ZM4.18943 14.1555L7.53397 17.5L3.24346 18.446L4.18943 14.1555Z" fill="#949DA6"/>
<path id="Vector_2" d="M23.8176 23.6487H1.18261C0.80944 23.6487 0.506943 23.9512 0.506943 24.3244C0.506943 24.6975 0.80944 25 1.18261 25H23.8176C24.1908 25 24.4933 24.6975 24.4933 24.3244C24.4933 23.9512 24.1908 23.6487 23.8176 23.6487Z" fill="#949DA6"/>
</g>
</g>
</g>
</g>
<defs>
<clipPath id="clip0_1_1075">
<rect width="25" height="25" fill="white"/>
</clipPath>
</defs>
</svg>
