<svg width="46" height="56" viewBox="0 0 46 56" fill="none" xmlns="http://www.w3.org/2000/svg">
<g id="Group">
<g id="Group_2">
<g id="Group_3">
<path id="Vector" d="M18.512 38.4268C17.951 38.567 17.5303 38.7073 17.1096 38.9878C16.5486 38.1463 16.1279 37.1646 15.5669 36.4634C14.5852 35.0609 13.4632 33.7987 12.4815 32.3963C10.9388 30.2926 9.67664 28.189 9.11567 25.5243C7.85347 18.9328 11.4998 12.4816 17.8108 9.95719C26.0852 6.59133 35.6218 12.2011 36.884 21.0365C37.445 25.1036 36.1828 28.4694 33.9389 31.6951C32.9572 33.0975 31.695 34.4999 30.7133 36.0426C30.0121 37.0243 29.5913 38.0061 28.8901 38.9878C28.6096 39.4085 28.3291 39.8292 27.9084 39.9695C24.6828 41.2317 21.4572 42.3536 18.2315 43.4756C17.8108 43.6158 17.5303 43.4756 17.3901 43.1951C17.2498 42.7744 17.2498 42.3536 17.6706 42.2134C17.9511 42.0731 18.2315 41.9329 18.512 41.9329C21.3169 40.9512 24.1218 39.9695 26.9267 38.8475C27.2072 38.7073 27.4876 38.4268 27.6279 38.1463C28.7498 36.0426 30.1523 34.3597 31.5548 32.3963C32.9572 30.5731 34.2194 28.8902 34.7804 26.6463C36.1828 22.1584 35.2011 18.2316 32.1157 14.8657C28.6096 10.9389 24.1218 9.67671 19.073 11.2194C14.0242 12.7621 11.2193 16.2682 10.2376 21.4572C9.53638 25.1036 10.7986 28.189 12.9022 30.9938C14.1644 32.6768 15.4267 34.3597 16.6888 36.0426C17.5303 36.6036 17.951 37.4451 18.512 38.4268Z" fill="#EB6B2A"/>
<path id="Vector_2" d="M17.8112 52.3111C17.6709 52.1708 17.3904 52.0306 17.3904 51.7501C17.3904 51.4696 17.5307 51.1891 17.6709 50.9086C17.6709 50.7684 17.9514 50.7684 18.0917 50.7684C21.177 49.6464 24.4027 48.5245 27.488 47.4025C28.1893 47.122 28.4697 47.2623 28.61 47.683C28.7502 48.1037 28.4697 48.5245 27.9088 48.805C24.6831 49.9269 21.5978 51.0489 18.3722 52.3111C18.2319 52.1708 18.0916 52.1708 17.8112 52.3111Z" fill="#EB6B2A"/>
<path id="Vector_3" d="M17.8112 47.683C17.6709 47.5428 17.3904 47.4025 17.3904 47.122C17.3904 46.8415 17.5307 46.5611 17.6709 46.2806C17.6709 46.1403 17.9514 46.1403 18.0917 46.1403C21.177 45.0184 24.4027 43.8964 27.488 42.7745C28.1893 42.494 28.4697 42.6342 28.61 43.055C28.7502 43.4757 28.61 43.8964 27.9088 44.1769C24.6831 45.2989 21.5978 46.5611 18.3722 47.683C18.2319 47.683 18.0916 47.683 17.8112 47.683Z" fill="#EB6B2A"/>
<path id="Vector_4" d="M27.9087 51.6099C26.927 54.9757 21.4574 56.9391 18.0916 55.116C21.3172 53.994 24.5428 52.7318 27.9087 51.6099Z" fill="#EB6B2A"/>
<path id="Vector_5" d="M23.7013 2.5244C23.7013 3.08537 23.7013 3.64635 23.7013 4.20733C23.7013 4.62806 23.4208 4.90855 23.0001 4.90855C22.5794 4.90855 22.2989 4.62806 22.2989 4.20733C22.2989 3.08537 22.2989 1.96342 22.2989 0.701222C22.2989 0.280489 22.5794 0 23.0001 0C23.4208 0 23.7013 0.280489 23.7013 0.701222C23.7013 1.2622 23.7013 1.96342 23.7013 2.5244Z" fill="#EB6B2A"/>
<path id="Vector_6" d="M2.52438 22.1587C3.08536 22.1587 3.64635 22.1587 4.20733 22.1587C4.76831 22.1587 5.0488 22.4392 5.0488 22.8599C5.0488 23.2806 4.76831 23.5611 4.20733 23.5611C3.08537 23.5611 1.96343 23.5611 0.841474 23.5611C0.280497 23.5611 0 23.2806 0 22.8599C0 22.4392 0.280497 22.1587 0.841474 22.1587C1.40245 22.1587 1.9634 22.1587 2.52438 22.1587Z" fill="#EB6B2A"/>
<path id="Vector_7" d="M43.4758 23.7013C42.9148 23.7013 42.3538 23.7013 41.7928 23.7013C41.3721 23.7013 41.0916 23.4208 41.0916 23C41.0916 22.5793 41.3721 22.2988 41.7928 22.2988C42.9148 22.2988 44.177 22.2988 45.2989 22.2988C45.7196 22.2988 46.0001 22.5793 46.0001 23C46.0001 23.4208 45.7196 23.7013 45.2989 23.7013C44.5977 23.7013 44.0367 23.7013 43.4758 23.7013Z" fill="#EB6B2A"/>
<path id="Vector_8" d="M7.012 6.17065C7.29248 6.3109 7.43272 6.45114 7.57296 6.59139C8.41443 7.43285 9.11567 8.13407 9.95713 8.97554C10.3779 9.39627 10.3779 9.67676 9.95713 10.0975C9.67665 10.378 9.25589 10.378 8.83515 10.0975C7.99369 9.25603 7.15225 8.55481 6.45103 7.71334C6.31078 7.5731 6.17053 7.15236 6.31077 6.87188C6.45102 6.45114 6.87175 6.3109 7.012 6.17065Z" fill="#EB6B2A"/>
<path id="Vector_9" d="M36.3234 35.4821C36.6039 35.6223 36.7441 35.7625 36.8844 35.9028C37.7258 36.604 38.4271 37.4455 39.2685 38.1467C39.6893 38.5674 39.6893 38.9882 39.4088 39.2687C39.1283 39.5491 38.7075 39.5491 38.2868 39.1284C37.4453 38.2869 36.7442 37.5857 35.9027 36.7443C35.7624 36.604 35.6222 36.1833 35.7624 35.9028C35.7624 35.7625 36.0429 35.6223 36.3234 35.4821Z" fill="#EB6B2A"/>
<path id="Vector_10" d="M39.6892 7.01224C39.5489 7.29273 39.4087 7.43298 39.2684 7.57322C38.427 8.41469 37.7257 9.11591 36.8843 9.95737C36.6038 10.2379 36.1831 10.3781 35.7623 9.95737C35.4818 9.67688 35.4818 9.25615 35.7623 8.83542C36.6038 7.99395 37.305 7.15249 38.1465 6.45126C38.2867 6.31102 38.7075 6.17078 38.9879 6.31102C39.2684 6.45127 39.4087 6.872 39.6892 7.01224Z" fill="#EB6B2A"/>
<path id="Vector_11" d="M7.01188 39.5488C6.87164 39.4086 6.59116 39.2683 6.45091 38.9879C6.31067 38.8476 6.45091 38.4269 6.45091 38.2866C7.29238 37.4452 8.13383 36.4635 9.11554 35.622C9.39603 35.3415 9.81674 35.3415 10.0972 35.622C10.3777 35.9025 10.3777 36.3232 10.0972 36.6037C9.25576 37.4452 8.41431 38.2866 7.57285 39.1281C7.4326 39.4086 7.29237 39.5488 7.01188 39.5488Z" fill="#EB6B2A"/>
</g>
</g>
</g>
</svg>
