<svg width="50" height="50" viewBox="0 0 50 50" fill="none" xmlns="http://www.w3.org/2000/svg">
<g id="Group">
<g id="Group_2">
<g id="Group_3">
<g id="Group_4">
<path id="Vector" d="M48.4798 1.42357C47.7301 1.42357 46.8554 1.42357 46.1056 1.42357C40.9823 1.67349 36.1089 2.79812 31.4854 5.04737C25.8623 7.67151 21.1138 11.4203 17.3651 16.4186C14.7409 19.7925 12.8666 23.5413 11.492 27.54C11.3671 27.7899 11.492 27.9148 11.617 28.0398C12.7416 29.1644 13.8662 30.2891 14.9909 31.4137C15.1158 31.5386 15.2408 31.7886 15.2408 32.0385C15.2408 32.2884 15.1158 32.5383 14.8659 32.6633C14.616 32.7882 14.2411 32.7882 14.1161 32.5383C13.4913 31.9135 12.9915 31.4137 12.3667 30.7889C11.617 30.0391 10.9922 29.2894 10.2424 28.6646C9.9925 28.4147 9.86754 28.0398 9.9925 27.6649C11.617 22.7915 13.9912 18.293 17.3651 14.2943C20.739 10.1707 24.8626 6.92176 29.4861 4.54754C33.7347 2.29828 38.3582 0.923734 43.1066 0.29894C45.1059 0.0490219 47.1053 -0.0759369 49.1046 0.0490219C49.7294 0.0490219 49.8544 0.298939 49.9793 0.923734C50.2292 9.04606 48.2299 16.5436 43.8563 23.5413C39.4828 30.414 33.4848 35.5373 25.9872 38.7863C24.8626 39.2861 23.613 39.661 22.3634 40.1608C21.9885 40.2858 21.7386 40.2858 21.4887 39.9109C20.2391 38.6613 18.8646 37.2867 17.615 36.0372C17.3651 35.7872 17.2401 35.4124 17.49 35.0375C17.7399 34.6626 18.2398 34.6626 18.6147 35.0375C19.7393 36.1621 20.8639 37.2867 21.9885 38.4114C22.2385 38.6613 22.3634 38.6613 22.6133 38.5363C28.1115 36.662 32.9849 33.6629 37.1086 29.6643C41.982 24.9158 45.2309 19.2927 47.1053 12.9198C48.1049 9.42093 48.6048 5.79713 48.6048 2.04836C48.6048 1.79845 48.4798 1.67349 48.4798 1.42357Z" fill="#EB6B2A"/>
</g>
<g id="Group_5">
<path id="Vector_2" d="M41.6064 16.0438C41.6064 20.2923 38.2325 23.6662 33.9839 23.6662C29.7353 23.6662 26.3614 20.2923 26.3614 16.0438C26.3614 11.9201 29.7353 8.42126 33.8589 8.42126C38.2325 8.42126 41.6064 11.7952 41.6064 16.0438ZM40.1069 16.1687C40.1069 12.6699 37.3578 9.92077 33.8589 9.92077C30.3601 9.92077 27.611 12.6699 27.611 16.1687C27.611 19.6676 30.3601 22.4166 33.8589 22.4166C37.3578 22.2917 40.1069 19.5426 40.1069 16.1687Z" fill="#EB6B2A"/>
</g>
<g id="Group_6">
<path id="Vector_3" d="M22.4885 48.0331C23.3632 47.5332 24.2379 46.9084 24.9877 46.2837C27.4869 44.0344 28.8614 41.2853 29.4862 38.0364C29.6112 37.5365 29.8611 37.2866 30.236 37.2866C30.7358 37.2866 30.9857 37.6615 30.9857 38.1613C30.8608 38.7861 30.7358 39.5359 30.4859 40.1607C29.1113 44.4093 26.6122 47.5332 22.7384 49.6575C21.8637 50.1574 21.4888 49.9075 21.3639 49.0327C20.864 46.4086 20.3642 43.6595 19.8644 41.0354C19.8644 40.7855 19.8644 40.5355 19.8644 40.4106C19.9893 40.1607 20.2393 40.0357 20.6141 40.0357C20.864 40.0357 21.114 40.2856 21.2389 40.5355C21.3639 41.2853 21.4888 42.0351 21.7388 42.9098C21.8637 44.6592 22.2386 46.2837 22.4885 48.0331Z" fill="#EB6B2A"/>
</g>
<g id="Group_7">
<path id="Vector_4" d="M1.8701 27.415C2.61985 27.54 3.36961 27.665 3.9944 27.7899C5.74382 28.1648 7.49325 28.4147 9.11771 28.7896C9.24267 28.7896 9.24267 28.7896 9.36763 28.7896C9.74251 28.9145 9.99242 29.2894 9.86747 29.6643C9.74251 30.0392 9.49259 30.2891 8.99275 30.1641C7.99308 29.9142 6.86845 29.7893 5.86878 29.5393C4.24432 29.1645 2.61985 28.9145 0.870431 28.5397C0.745472 28.5397 0.745472 28.5397 0.620514 28.5397C-0.0042804 28.4147 -0.129239 28.0398 0.120678 27.415C0.870431 26.0405 1.74514 24.6659 2.86977 23.5413C5.24399 21.0421 8.11804 19.6676 11.367 18.9178C11.4919 18.9178 11.6169 18.9178 11.6169 18.7929C11.9918 18.6679 12.3666 18.9178 12.4916 19.2927C12.6166 19.6676 12.3666 20.0425 11.8668 20.1674C11.1171 20.4173 10.2423 20.5423 9.49259 20.7922C6.24366 21.9169 3.74448 23.9162 1.8701 26.7902C1.99506 27.1651 1.99506 27.2901 1.8701 27.415Z" fill="#EB6B2A"/>
</g>
<g id="Group_8">
<path id="Vector_5" d="M10.7422 38.5364C10.8672 38.4115 10.9922 38.1616 11.1171 38.0366C13.4913 35.6624 15.7406 33.4131 18.1148 31.0389C18.9895 30.1642 19.7393 29.4144 20.614 28.5397C20.9889 28.1649 21.3637 28.1649 21.7386 28.4148C21.9885 28.6647 21.9885 29.1645 21.6137 29.5394C18.8646 32.2885 16.1155 35.1626 13.2414 37.9116C12.8665 38.2865 12.4917 38.7864 11.9918 39.1612C11.7419 39.4112 11.492 39.4112 11.2421 39.2862C10.8672 39.1612 10.7422 38.9113 10.7422 38.5364Z" fill="#EB6B2A"/>
</g>
<g id="Group_9">
<path id="Vector_6" d="M7.49341 41.7853C7.74333 41.9102 7.99325 42.0352 8.11821 42.2851C8.24317 42.535 8.11821 42.7849 7.99325 43.0349C7.86829 43.1598 7.61837 43.4097 7.49341 43.6597C5.99391 45.1592 4.4944 46.7836 2.86994 48.2831C2.62002 48.4081 2.49506 48.5331 2.24514 48.5331C1.99523 48.5331 1.74531 48.4081 1.62035 48.1582C1.49539 47.7833 1.49539 47.5334 1.74531 47.2835C2.74498 46.2838 3.74465 45.2841 4.74432 44.2845C5.49407 43.5347 6.11887 42.9099 6.86862 42.1602C7.11854 42.0352 7.2435 41.9102 7.49341 41.7853Z" fill="#EB6B2A"/>
</g>
<g id="Group_10">
<path id="Vector_7" d="M6.36885 36.662C6.99365 36.662 7.36852 37.2868 7.11861 37.6617C6.99365 37.7866 6.99365 37.9116 6.86869 38.0365C5.24422 39.661 3.61976 41.2855 1.99529 42.9099L1.87034 43.0349C1.49546 43.2848 1.12058 43.4098 0.870666 43.0349C0.620748 42.785 0.620748 42.2851 0.870666 42.0352C2.12025 40.7856 3.36984 39.536 4.61943 38.2865C5.11926 37.7866 5.49414 37.4117 5.99398 37.0369C6.11894 36.7869 6.36885 36.662 6.36885 36.662Z" fill="#EB6B2A"/>
</g>
<g id="Group_11">
<path id="Vector_8" d="M13.3656 43.6597C13.3656 43.7847 13.2407 43.9097 13.1157 44.1596C11.3663 45.909 9.74183 47.5335 7.99241 49.2829C7.61753 49.6578 7.24266 49.6578 6.86778 49.2829C6.61786 49.033 6.61786 48.5331 6.99274 48.2832C8.74216 46.5338 10.3666 44.9093 12.1161 43.1599C12.366 42.91 12.6159 42.785 12.9908 42.91C13.2407 43.0349 13.3656 43.1599 13.3656 43.6597Z" fill="#EB6B2A"/>
</g>
</g>
</g>
</g>
</svg>
