<svg width="49" height="36" viewBox="0 0 49 36" fill="none" xmlns="http://www.w3.org/2000/svg">
<g id="Layer_1" clip-path="url(#clip0_1_1035)">
<path id="Vector" d="M1.67099 25.2984C1.68372 20.3584 5.70685 16.339 10.6275 16.3485C15.561 16.3581 19.5682 20.3775 19.5618 25.3143C19.5554 30.2574 15.5514 34.2578 10.6116 34.2514C5.67183 34.245 1.65826 30.2255 1.67099 25.2952V25.2984ZM18.6069 25.3079C18.6069 20.8903 15.0135 17.2977 10.6084 17.304C6.20337 17.3104 2.60038 20.9317 2.62266 25.327C2.64494 29.7319 6.20337 33.2863 10.6021 33.2959C15.0199 33.3054 18.6069 29.7255 18.6069 25.3079Z" fill="#EB6B2A"/>
<g id="Group">
<path id="Vector_2" d="M9.02358e-06 24.3429C1.61053 18.1131 3.77169 12.052 5.61138 5.89223C6.6649 2.37281 9.22391 0.649727 12.6932 0.133758C15.2331 -0.245256 17.5725 0.315303 19.5841 1.9938C21.0673 3.23276 21.7325 4.47809 21.9362 6.40501H27.0192C27.1243 5.91453 27.1847 5.40493 27.3439 4.93036C28.0791 2.76138 29.6706 1.36635 31.7394 0.633802C35.2024 -0.595606 38.4266 -0.0414166 41.2593 2.37599C42.3065 3.27098 42.9399 4.43987 43.3473 5.74572C44.9387 10.8704 46.5174 16.0014 48.147 21.1165C48.6244 22.6166 49.0287 24.104 48.9968 25.6933C48.8886 30.9295 44.7063 35.4554 39.4992 35.9458C33.7701 36.4873 28.773 32.6621 27.8945 26.9769C27.6781 25.5659 27.7163 24.1136 27.6622 22.6803C27.6335 21.9478 27.6558 21.2152 27.6558 20.4477H21.4556C21.4429 20.5687 21.4174 20.7025 21.4111 20.8394C21.3251 22.7504 21.3124 24.671 21.1437 26.5756C20.7427 31.1078 17.0792 35.0349 12.6105 35.828C6.8495 36.8472 1.51186 33.3087 0.232357 27.6139C0.140055 27.1967 0.0732146 26.7762 -0.00317383 26.3558C-0.00317383 25.687 -0.00317383 25.0149 -0.00317383 24.3461L9.02358e-06 24.3429ZM20.418 21.1961C20.4403 20.9955 20.453 20.919 20.4562 20.8458C20.6249 16.253 20.7713 11.6603 20.9655 7.06749C21.0418 5.25523 20.3321 3.85065 18.973 2.72634C16.9073 1.01919 14.5265 0.640172 11.993 1.22621C9.29394 1.85047 7.35558 3.38564 6.51849 6.14066C5.57318 9.24922 4.59286 12.3482 3.62846 15.4504C3.35792 16.3231 3.08419 17.1958 2.78182 18.1704C8.094 12.6253 17.1238 14.0745 20.418 21.1929V21.1961ZM46.1832 18.1385C46.1514 17.9952 46.1354 17.906 46.11 17.82C44.8591 13.8069 43.6083 9.79066 42.351 5.77757C41.9723 4.57364 41.2911 3.56081 40.2885 2.79323C37.8823 0.952302 35.1928 0.503218 32.3378 1.42687C29.365 2.38555 27.9486 4.4972 28.0568 7.59939C28.2064 11.9851 28.3751 16.3709 28.5406 20.7534C28.5438 20.8649 28.5725 20.9764 28.6011 21.1579C31.9367 14.014 40.9983 12.6635 46.1864 18.1385H46.1832ZM27.5412 19.4412C27.3916 15.409 27.2452 11.4214 27.0956 7.4274H21.898C21.7484 11.4437 21.602 15.4313 21.4556 19.4412H27.5412ZM0.958047 25.4163C0.964413 30.7256 5.31219 35.0636 10.6212 35.0636C15.9461 35.0636 20.2939 30.697 20.2843 25.3621C20.2748 20.0304 15.9238 15.7148 10.5703 15.7211C5.27399 15.7275 0.951682 20.0878 0.958047 25.4163ZM38.3502 15.7211C33.0094 15.7371 28.6934 20.0909 28.7125 25.4385C28.7348 30.7447 33.0953 35.0732 38.4043 35.0604C43.7324 35.0477 48.0833 30.681 48.0324 25.3366C47.9815 19.8871 43.5923 15.7084 38.347 15.7211H38.3502Z" fill="#EB6B2A"/>
<path id="Vector_3" d="M38.3597 16.4282C43.2741 16.4091 47.3036 20.4253 47.3258 25.3684C47.3481 30.2925 43.3345 34.3215 38.3948 34.3342C33.455 34.347 29.4509 30.353 29.435 25.4035C29.4223 20.4699 33.42 16.4505 38.3597 16.4282ZM46.3742 25.3971C46.3837 20.9955 42.7775 17.3837 38.3788 17.3837C33.9897 17.3837 30.4217 20.9413 30.3899 25.3493C30.3581 29.7574 33.9356 33.3596 38.3566 33.3755C42.7712 33.3915 46.3678 29.8115 46.3773 25.3971H46.3742Z" fill="#EB6B2A"/>
<path id="Vector_4" d="M17.3688 23.018C18.4001 26.2476 17.2574 29.5918 14.4597 31.3945C11.6492 33.2068 7.95078 32.8023 5.57955 30.439C3.21151 28.0789 2.79774 24.362 4.59923 21.5561C6.41346 18.731 9.79046 17.5971 12.9829 18.6354C12.741 18.8329 12.5277 19.0081 12.3145 19.1896C10.8058 20.4636 10.6785 22.6103 12.0312 23.9671C13.3712 25.3144 15.4941 25.2061 16.7736 23.7219C16.9678 23.4957 17.1588 23.2632 17.3657 23.0148L17.3688 23.018ZM10.8885 19.2342C8.56506 18.9826 6.03152 20.5401 4.99072 22.8333C3.89901 25.2379 4.47828 28.1395 6.40073 29.8976C8.44093 31.7608 11.296 32.0984 13.664 30.7671C15.8029 29.56 16.9996 27.0788 16.7323 25.1233C14.8003 26.238 12.9542 26.1839 11.3214 24.5882C9.93687 23.2377 9.83184 21.5784 10.8854 19.2342H10.8885Z" fill="#EB6B2A"/>
<path id="Vector_5" d="M40.7691 18.645C39.6742 19.4062 38.8849 20.2916 38.8594 21.6389C38.8435 22.5434 39.1523 23.3365 39.8016 23.9671C40.5941 24.7411 41.5426 25.0405 42.6502 24.8494C43.761 24.6551 44.4581 23.9066 45.0915 23.0466C46.0399 25.4672 45.4257 28.786 42.9876 30.834C40.2949 33.0985 36.4341 33.0921 33.7637 30.8244C31.1187 28.579 30.4694 24.7379 32.2423 21.7567C34.0024 18.7979 37.4813 17.5685 40.7691 18.645ZM38.6494 19.2438C36.3227 18.938 33.6778 20.6165 32.6752 23.0021C31.6057 25.5501 32.3823 28.5439 34.553 30.2352C36.781 31.9742 39.8111 32.0188 42.055 30.3467C43.726 29.1045 44.9641 26.4132 44.4613 25.1264C42.4306 26.203 40.5941 26.0565 39.1777 24.7028C37.7327 23.3206 37.5545 21.5529 38.6462 19.2406L38.6494 19.2438Z" fill="#EB6B2A"/>
</g>
</g>
<defs>
<clipPath id="clip0_1_1035">
<rect width="49" height="36" fill="white"/>
</clipPath>
</defs>
</svg>
