<svg width="50" height="50" viewBox="0 0 50 50" fill="none" xmlns="http://www.w3.org/2000/svg">
<g id="Layer_1" clip-path="url(#clip0_1_946)">
<path id="Vector" d="M21.1755 50.0001C20.3101 49.8748 19.4408 49.7744 18.5806 49.6205C13.8516 48.7727 9.81046 46.6076 6.45329 43.189C3.00605 39.6792 0.839285 35.4794 0.223194 30.6013C-0.845829 22.1326 1.94225 15.1024 8.51824 9.64137C11.6548 7.03671 15.3109 5.50547 19.3429 4.92767C24.1202 4.24291 28.677 4.99549 32.987 7.18409C33.543 7.46582 33.7193 7.8858 33.4895 8.31882C33.2598 8.75054 32.8173 8.84706 32.2652 8.56664C29.0999 6.95714 25.7401 6.155 22.191 6.26326C15.7025 6.46151 10.3574 9.08053 6.24183 14.0864C2.8455 18.2184 1.32224 23.0273 1.5598 28.3553C1.98401 37.8597 8.77146 45.8628 18.1029 47.9445C29.4432 50.4748 40.8187 43.2021 43.2543 31.8469C44.2985 26.9819 43.6877 22.3113 41.4896 17.8467C41.4321 17.7306 41.3617 17.6184 41.3173 17.4971C41.1672 17.085 41.3173 16.6845 41.6828 16.498C42.0508 16.3089 42.4503 16.425 42.6983 16.798C42.7609 16.8919 42.8079 16.9963 42.8601 17.098C49.4061 29.9361 42.3028 45.6789 28.3193 49.2736C27.0662 49.5957 25.7571 49.704 24.4753 49.9127C24.35 49.9335 24.2273 49.9688 24.1046 49.9974H21.1729L21.1755 50.0001Z" fill="#EB6B2A"/>
<path id="Vector_2" d="M50 5.76108C48.8109 6.96103 47.6257 8.16358 46.4327 9.35831C44.3638 11.4321 42.2845 13.4968 40.2209 15.5772C39.9115 15.8889 39.5839 16.0311 39.1414 16.0232C37.9366 16.0024 36.7319 16.0258 35.5271 16.0089C35.2086 16.005 34.9867 16.1015 34.7622 16.3258C31.0043 20.0952 27.2386 23.8555 23.4728 27.6171C22.9051 28.1845 22.4756 28.2705 22.0945 27.8949C21.7107 27.5167 21.7943 27.0823 22.3581 26.5189C26.1108 22.7677 29.8622 19.0153 33.6214 15.2707C33.8694 15.0228 33.9895 14.7855 33.983 14.4255C33.9595 13.2216 33.9843 12.0178 33.9673 10.8139C33.9621 10.4109 34.0835 10.1031 34.3706 9.81742C37.519 6.68191 40.6608 3.53987 43.8013 0.396529C44.0936 0.103064 44.3965 -0.121274 44.8337 0.0730649C45.2645 0.264796 45.3141 0.636519 45.3115 1.04998C45.3023 2.23688 45.3089 3.42379 45.3089 4.68765C45.6104 4.68765 45.8962 4.68765 46.1808 4.68765C47.0762 4.68765 47.9729 4.70982 48.867 4.67852C49.3448 4.66156 49.7246 4.77634 50 5.17545V5.76108ZM47.3072 6.25019H45.4433C43.7608 6.25019 43.7464 6.23584 43.7464 4.57809V2.71295C43.6264 2.80947 43.5768 2.84207 43.5363 2.88381C40.9349 5.48326 38.3321 8.08272 35.7346 10.6861C35.6498 10.7722 35.5519 10.8974 35.5493 11.0056C35.5336 11.7452 35.5401 12.486 35.5401 13.3207C35.7425 13.1316 35.8717 13.0168 35.9931 12.8942C37.7891 11.1008 39.5839 9.30484 41.3813 7.51144C41.4961 7.39666 41.6071 7.27275 41.7402 7.18276C42.0822 6.9532 42.4281 6.97798 42.7192 7.26232C43.0116 7.54535 43.0507 7.89229 42.8262 8.23793C42.7309 8.38531 42.5939 8.50922 42.4686 8.63574C40.6738 10.4317 38.8777 12.2251 37.083 14.0212C36.9642 14.1398 36.8559 14.2677 36.6849 14.4555C37.4145 14.4555 38.0463 14.4398 38.6767 14.462C38.9952 14.4737 39.2171 14.3707 39.4416 14.1451C41.9321 11.6408 44.433 9.14832 46.93 6.6506C47.0318 6.54887 47.1271 6.44192 47.3059 6.25149L47.3072 6.25019Z" fill="#EB6B2A"/>
<path id="Vector_3" d="M40.6189 26.7744C40.6333 36.0388 34.3458 43.5333 25.7309 45.0345C15.9662 46.7353 6.62036 40.1826 4.94177 30.4565C3.27101 20.7721 9.56507 11.5873 19.2124 9.71171C23.8148 8.81697 28.1405 9.64389 32.1477 12.0933C32.273 12.169 32.4022 12.2433 32.5106 12.3399C32.8304 12.6281 32.9074 12.9777 32.6724 13.3468C32.4375 13.7172 32.0824 13.7811 31.6869 13.6337C31.5668 13.5894 31.4611 13.5059 31.3502 13.4368C21.5684 7.40051 8.88893 12.8381 6.54726 24.0759C4.68724 33.005 10.6941 41.8677 19.6979 43.4759C28.5268 45.0528 36.9981 39.3322 38.7289 30.5817C39.563 26.3675 38.8346 22.4012 36.6039 18.7191C36.1927 18.0396 36.2006 17.5948 36.647 17.3131C37.1012 17.0262 37.5033 17.2049 37.9262 17.8909C39.7066 20.7708 40.5811 23.9089 40.6163 26.7758L40.6189 26.7744Z" fill="#EB6B2A"/>
<path id="Vector_4" d="M22.4142 14.0538C25.1292 14.089 27.4069 14.7085 29.5071 15.9711C29.853 16.1785 30.1102 16.4341 30.0384 16.8685C29.9405 17.4658 29.3387 17.6889 28.7396 17.3328C27.6249 16.6715 26.4436 16.1915 25.1788 15.9059C18.4083 14.3825 11.7384 19.1484 10.9957 26.0441C10.2203 33.2451 15.9779 39.3649 23.23 39.0518C28.8884 38.8079 33.6984 34.2781 34.2857 28.6658C34.5585 26.0533 34.0338 23.626 32.7233 21.3539C32.5928 21.127 32.4544 20.8074 32.5197 20.5909C32.5941 20.3431 32.8552 20.0731 33.1005 19.9714C33.4543 19.8253 33.7571 20.0561 33.9516 20.3731C34.7517 21.6722 35.3274 23.0651 35.6315 24.5599C37.1848 32.1847 32.1855 39.3323 24.4909 40.4983C17.4894 41.5587 10.6367 36.5424 9.54158 29.5553C8.36944 22.083 13.3256 15.3046 20.7839 14.192C21.4105 14.0981 22.0475 14.0825 22.4129 14.0525L22.4142 14.0538Z" fill="#EB6B2A"/>
<path id="Vector_5" d="M23.1478 18.7518C23.8918 18.7584 25.077 19.0062 26.2008 19.5253C26.7647 19.7848 26.9631 20.1944 26.7556 20.6365C26.5454 21.0826 26.1238 21.1909 25.5495 20.9443C20.6665 18.851 15.4545 22.3621 15.6085 27.6406C15.7129 31.1765 18.6851 34.1972 22.2315 34.3681C25.8863 34.5442 29.092 31.9343 29.5933 28.4023C29.7956 26.9728 29.5907 25.6189 28.9915 24.3146C28.8023 23.9025 28.8832 23.5438 29.2604 23.2882C29.5828 23.069 29.9157 23.1134 30.1989 23.3742C30.3033 23.4695 30.3764 23.6064 30.4404 23.7355C32.9191 28.8366 29.4536 35.1742 23.8161 35.8524C18.4344 36.5006 13.9273 32.4404 14.0448 27.051C14.144 22.486 18.0272 18.744 23.1465 18.7544L23.1478 18.7518Z" fill="#EB6B2A"/>
<path id="Vector_6" d="M18.7334 27.3249C18.7373 25.6045 19.9055 24.0642 21.5658 23.5907C22.1519 23.4238 22.5983 23.6038 22.7288 24.059C22.8659 24.535 22.6153 24.9002 22.0227 25.0867C20.8401 25.4611 20.1261 26.558 20.3206 27.7031C20.5216 28.8835 21.5515 29.7274 22.7393 29.6831C23.6921 29.6478 24.5562 28.997 24.8669 28.0788C24.893 28.0018 24.906 27.921 24.9308 27.844C25.1005 27.3301 25.4699 27.1032 25.9268 27.2349C26.3445 27.3549 26.5677 27.7514 26.4358 28.2496C26.0416 29.7431 25.0875 30.7265 23.5995 31.1217C21.1377 31.7751 18.7255 29.8748 18.7321 27.3249H18.7334Z" fill="#EB6B2A"/>
</g>
<defs>
<clipPath id="clip0_1_946">
<rect width="50" height="50" fill="white"/>
</clipPath>
</defs>
</svg>
