<svg width="25" height="26" viewBox="0 0 25 26" fill="none" xmlns="http://www.w3.org/2000/svg">
<g id="location" clip-path="url(#clip0_1_1084)">
<g id="Group">
<path id="Vector" d="M10.1563 6.10839C9.51018 6.10839 8.98444 5.57795 8.98444 4.92602C8.98444 4.27409 9.51018 3.74365 10.1563 3.74365C10.8025 3.74365 11.3282 4.27409 11.3282 4.92602C11.3282 5.57795 10.8025 6.10839 10.1563 6.10839Z" fill="#949DA6"/>
<path id="Vector_2" d="M24.9752 21.6358L23.0709 8.82691C22.9049 7.70849 21.9706 6.89669 20.8495 6.89669H13.5956C14.2339 5.67836 14.2227 4.24513 13.5552 3.02389C12.8803 1.78906 11.6564 1.02751 10.281 0.986674C10.1987 0.98426 10.1141 0.98426 10.0312 0.986674C8.65615 1.02747 7.43224 1.78906 6.75732 3.02389C6.09007 4.24464 6.07864 5.67723 6.71699 6.89669H4.15076C3.02959 6.89669 2.09539 7.70849 1.92937 8.82671L0.0250206 21.6358C-0.0720034 22.2888 0.117308 22.9503 0.544419 23.4507C0.971578 23.9511 1.59191 24.238 2.24641 24.238H22.7538C23.4083 24.238 24.0286 23.9511 24.4558 23.4507C24.8829 22.9504 25.0722 22.2889 24.9752 21.6358ZM8.12567 3.78524C8.53696 3.03281 9.24825 2.58716 10.077 2.56257C10.1032 2.56179 10.1297 2.56144 10.1563 2.56144C10.1829 2.56144 10.2095 2.56183 10.2354 2.56257C11.0644 2.58716 11.7757 3.03281 12.187 3.78524C12.6166 4.57122 12.6047 5.49918 12.1552 6.26782L10.1563 9.66319L8.15804 6.26881C7.70798 5.49997 7.69587 4.57152 8.12567 3.78524ZM23.2719 22.422C23.1955 22.5115 23.0266 22.6617 22.7538 22.6617H8.59936C8.63583 22.2922 8.80532 21.7369 9.44621 21.3821C9.82449 21.1727 9.96287 20.6935 9.7553 20.3118C9.54772 19.9302 9.07271 19.7906 8.69448 20C7.86707 20.4581 7.32159 21.1773 7.11705 22.0798C7.06924 22.2906 7.04615 22.4882 7.03682 22.6617H2.24641C1.97365 22.6617 1.80475 22.5115 1.72838 22.422C1.65202 22.3325 1.52989 22.1418 1.57032 21.8697L3.47467 9.06053C3.52521 8.72025 3.80954 8.47328 4.15081 8.47328H7.63845L9.1544 11.0484C9.36671 11.4102 9.74123 11.6262 10.1563 11.6262C10.5714 11.6262 10.946 11.4102 11.1576 11.0494L12.6742 8.47328H20.8495C21.1907 8.47328 21.4751 8.72025 21.5257 9.06067L23.43 21.8696C23.4703 22.1417 23.3483 22.3325 23.2719 22.422Z" fill="#949DA6"/>
<path id="Vector_3" d="M13.5285 10.8784C13.1191 10.7406 12.6767 10.9639 12.5403 11.3769C12.4038 11.7899 12.6251 12.2363 13.0344 12.3739C13.0424 12.3766 13.843 12.6654 14.1029 13.4519C14.2119 13.7822 14.5168 13.9911 14.8439 13.9911C14.9258 13.9911 15.0092 13.978 15.0911 13.9504C15.5005 13.8127 15.7217 13.3664 15.5852 12.9534C15.0769 11.4148 13.5915 10.8995 13.5285 10.8784Z" fill="#949DA6"/>
<path id="Vector_4" d="M14.1907 15.843C13.7838 15.6981 13.3375 15.9135 13.194 16.324C12.753 17.5844 11.2417 18.1259 11.2099 18.137C10.8022 18.2757 10.5823 18.721 10.7185 19.1331C10.8276 19.4635 11.1325 19.6724 11.4596 19.6724C11.5415 19.6724 11.6248 19.6592 11.7068 19.6317C11.7987 19.6008 13.9669 18.8512 14.6675 16.8487C14.811 16.4381 14.5976 15.9879 14.1907 15.843Z" fill="#949DA6"/>
</g>
</g>
<defs>
<clipPath id="clip0_1_1084">
<rect width="25" height="25.2232" fill="white"/>
</clipPath>
</defs>
</svg>
