<svg width="25" height="25" viewBox="0 0 25 25" fill="none" xmlns="http://www.w3.org/2000/svg">
<g id="phone" clip-path="url(#clip0_1_1093)">
<g id="Group">
<path id="Vector" d="M17.9678 25C17.1608 25 16.3607 24.8573 15.5782 24.5731C12.1312 23.3209 8.93165 21.2814 6.32531 18.6751C3.71897 16.0688 1.6795 12.8692 0.427357 9.42217C0.0249807 8.31441 -0.0937644 7.1709 0.0745392 6.02329C0.232199 4.94833 0.648588 3.90477 1.27874 3.00539C1.91167 2.10206 2.75548 1.35073 3.71892 0.832632C4.74632 0.280164 5.86771 0 7.05204 0C7.42038 0 7.73873 0.257363 7.81592 0.617504L9.04214 6.33988C9.09765 6.599 9.01802 6.86862 8.83067 7.05601L6.7354 9.15124C8.71198 13.0811 11.9193 16.2883 15.8491 18.2649L17.9443 16.1696C18.1317 15.9823 18.4014 15.9028 18.6604 15.9582L24.3828 17.1844C24.743 17.2616 25.0003 17.5799 25.0003 17.9483C25.0003 19.1326 24.7202 20.2541 24.1676 21.2815C23.6495 22.2449 22.8982 23.0887 21.9949 23.7216C21.0956 24.3518 20.052 24.7682 18.977 24.9258C18.6401 24.9753 18.3033 25 17.9678 25ZM6.42784 1.59661C4.86565 1.76907 3.47909 2.58788 2.55832 3.90204C1.52292 5.37976 1.28147 7.19731 1.8959 8.88875C4.30322 15.5157 9.4847 20.6972 16.1117 23.1045C17.8031 23.719 19.6206 23.4776 21.0984 22.4421C22.4125 21.5213 23.2314 20.1348 23.4038 18.5726L18.7487 17.5751L16.5605 19.7633C16.3276 19.9961 15.9738 20.058 15.6759 19.9179C11.0281 17.7344 7.26599 13.9723 5.08249 9.32452C4.9425 9.02653 5.00432 8.67274 5.23717 8.43994L7.42536 6.25175L6.42784 1.59661Z" fill="#949DA6"/>
</g>
</g>
<defs>
<clipPath id="clip0_1_1093">
<rect width="25" height="25" fill="white"/>
</clipPath>
</defs>
</svg>
