<svg width="25" height="25" viewBox="0 0 25 25" fill="none" xmlns="http://www.w3.org/2000/svg">
<g id="share (1) 1">
<path id="Vector" d="M20.0356 7.8125C17.8826 7.8125 16.1294 6.06041 16.1294 3.90625C16.1294 1.75209 17.8826 0 20.0356 0C22.1888 0 23.9419 1.75209 23.9419 3.90625C23.9419 6.06041 22.1888 7.8125 20.0356 7.8125ZM20.0356 1.5625C18.744 1.5625 17.6919 2.61345 17.6919 3.90625C17.6919 5.19905 18.744 6.25 20.0356 6.25C21.3273 6.25 22.3794 5.19905 22.3794 3.90625C22.3794 2.61345 21.3273 1.5625 20.0356 1.5625Z" fill="#949DA6"/>
<path id="Vector_2" d="M20.0356 25C17.8826 25 16.1294 23.2479 16.1294 21.0938C16.1294 18.9396 17.8826 17.1875 20.0356 17.1875C22.1888 17.1875 23.9419 18.9396 23.9419 21.0938C23.9419 23.2479 22.1888 25 20.0356 25ZM20.0356 18.75C18.744 18.75 17.6919 19.8009 17.6919 21.0938C17.6919 22.3866 18.744 23.4375 20.0356 23.4375C21.3273 23.4375 22.3794 22.3866 22.3794 21.0938C22.3794 19.8009 21.3273 18.75 20.0356 18.75Z" fill="#949DA6"/>
<path id="Vector_3" d="M4.93164 16.4062C2.77843 16.4062 1.02539 14.6542 1.02539 12.5C1.02539 10.3458 2.77843 8.59375 4.93164 8.59375C7.08485 8.59375 8.83789 10.3458 8.83789 12.5C8.83789 14.6542 7.08485 16.4062 4.93164 16.4062ZM4.93164 10.1562C3.63998 10.1562 2.58789 11.2072 2.58789 12.5C2.58789 13.7928 3.63998 14.8438 4.93164 14.8438C6.2233 14.8438 7.27539 13.7928 7.27539 12.5C7.27539 11.2072 6.2233 10.1562 4.93164 10.1562Z" fill="#949DA6"/>
<path id="Vector_4" d="M7.65149 11.7396C7.3795 11.7396 7.11495 11.5979 6.97228 11.3459C6.75866 10.9709 6.88893 10.4937 7.26392 10.2803L16.9296 4.76978C17.3034 4.55425 17.7816 4.68547 17.9941 5.0616C18.2077 5.43659 18.0774 5.91361 17.7025 6.12724L8.03678 11.6376C7.9149 11.7062 7.78272 11.7396 7.65149 11.7396Z" fill="#949DA6"/>
<path id="Vector_5" d="M17.3161 20.3334C17.1849 20.3334 17.0525 20.3 16.9306 20.2304L7.26493 14.7199C6.88995 14.5065 6.75987 14.0292 6.9733 13.6543C7.18578 13.2783 7.663 13.148 8.03798 13.3626L17.7035 18.8729C18.0785 19.0866 18.2087 19.5636 17.9953 19.9386C17.8515 20.1917 17.5869 20.3334 17.3161 20.3334Z" fill="#949DA6"/>
</g>
</svg>
